<?xml version="1.0" encoding="UTF-8" standalone="no"?>
<svg
   xmlns:dc="http://purl.org/dc/elements/1.1/"
   xmlns:cc="http://creativecommons.org/ns#"
   xmlns:rdf="http://www.w3.org/1999/02/22-rdf-syntax-ns#"
   xmlns:svg="http://www.w3.org/2000/svg"
   xmlns="http://www.w3.org/2000/svg"
   xmlns:sodipodi="http://sodipodi.sourceforge.net/DTD/sodipodi-0.dtd"
   xmlns:inkscape="http://www.inkscape.org/namespaces/inkscape"
   version="1.1"
   width="45"
   height="41.216709"
   id="svg3128"
   inkscape:version="0.48.1 r9760"
   sodipodi:docname="Piece_White_Queen.svg"
   viewBox="0 0 45 41.21">
  <metadata
     id="metadata3311">
    <rdf:RDF>
      <cc:Work
         rdf:about="">
        <dc:format>image/svg+xml</dc:format>
        <dc:type
           rdf:resource="http://purl.org/dc/dcmitype/StillImage" />
      </cc:Work>
    </rdf:RDF>
  </metadata>
  <sodipodi:namedview
     pagecolor="#ffffff"
     bordercolor="#666666"
     borderopacity="1"
     objecttolerance="10"
     gridtolerance="10"
     guidetolerance="10"
     inkscape:pageopacity="0"
     inkscape:pageshadow="2"
     inkscape:window-width="1680"
     inkscape:window-height="1002"
     id="namedview3309"
     showgrid="false"
     fit-margin-top="0"
     fit-margin-left="0"
     fit-margin-right="0"
     fit-margin-bottom="0"
     inkscape:zoom="5.8222222"
     inkscape:cx="-6.8702291"
     inkscape:cy="20.49106"
     inkscape:window-x="0"
     inkscape:window-y="0"
     inkscape:window-maximized="0"
     inkscape:current-layer="svg3128" />
  <defs
     id="defs3130" />
  <g
     id="layer1"
     transform="matrix(1.1688312,0,0,1.1688312,-3.7987014,-5.5519482)">
    <path
       d="m 9,13 a 2,2 0 1 1 -4,0 2,2 0 1 1 4,0 z"
       transform="translate(-1,-1)"
       style="fill:#ffffff;fill-opacity:1;stroke:#000000;stroke-width:1.5;stroke-linecap:round;stroke-linejoin:round;stroke-miterlimit:4;stroke-opacity:1;stroke-dasharray:none"
       id="path5571"
       inkscape:connector-curvature="0" />
    <path
       d="m 9,13 a 2,2 0 1 1 -4,0 2,2 0 1 1 4,0 z"
       transform="translate(15.5,-5.5)"
       style="fill:#ffffff;fill-opacity:1;stroke:#000000;stroke-width:1.5;stroke-linecap:round;stroke-linejoin:round;stroke-miterlimit:4;stroke-opacity:1;stroke-dasharray:none"
       id="path5573"
       inkscape:connector-curvature="0" />
    <path
       d="m 9,13 a 2,2 0 1 1 -4,0 2,2 0 1 1 4,0 z"
       transform="translate(32,-1)"
       style="fill:#ffffff;fill-opacity:1;stroke:#000000;stroke-width:1.5;stroke-linecap:round;stroke-linejoin:round;stroke-miterlimit:4;stroke-opacity:1;stroke-dasharray:none"
       id="path5575"
       inkscape:connector-curvature="0" />
    <path
       d="m 9,13 a 2,2 0 1 1 -4,0 2,2 0 1 1 4,0 z"
       transform="translate(7,-4.5)"
       style="fill:#ffffff;fill-opacity:1;stroke:#000000;stroke-width:1.5;stroke-linecap:round;stroke-linejoin:round;stroke-miterlimit:4;stroke-opacity:1;stroke-dasharray:none"
       id="path5577"
       inkscape:connector-curvature="0" />
    <path
       d="m 9,13 a 2,2 0 1 1 -4,0 2,2 0 1 1 4,0 z"
       transform="translate(24,-4)"
       style="fill:#ffffff;fill-opacity:1;stroke:#000000;stroke-width:1.5;stroke-linecap:round;stroke-linejoin:round;stroke-miterlimit:4;stroke-opacity:1;stroke-dasharray:none"
       id="path5579"
       inkscape:connector-curvature="0" />
    <path
       d="m 9,26 c 8.5,-1.5 21,-1.5 27,0 l 2,-12 -7,11 0,-14 -5.5,13.5 -3,-15 -3,15 L 14,10.5 14,25 7,14 9,26 z"
       style="fill:#ffffff;fill-opacity:1;fill-rule:evenodd;stroke:#000000;stroke-width:1.5;stroke-linecap:butt;stroke-linejoin:round;stroke-miterlimit:4;stroke-opacity:1;stroke-dasharray:none"
       id="path5581"
       inkscape:connector-curvature="0" />
    <path
       d="m 9,26 c 0,2 1.5,2 2.5,4 1,1.5 1,1 0.5,3.5 -1.5,1 -1.5,2.5 -1.5,2.5 -1.5,1.5 0.5,2.5 0.5,2.5 6.5,1 16.5,1 23,0 0,0 1.5,-1 0,-2.5 0,0 0.5,-1.5 -1,-2.5 -0.5,-2.5 -0.5,-2 0.5,-3.5 1,-2 2.5,-2 2.5,-4 -8.5,-1.5 -18.5,-1.5 -27,0 z"
       style="fill:#ffffff;fill-opacity:1;fill-rule:evenodd;stroke:#000000;stroke-width:1.5;stroke-linecap:butt;stroke-linejoin:round;stroke-miterlimit:4;stroke-opacity:1;stroke-dasharray:none"
       id="path5583"
       inkscape:connector-curvature="0" />
    <path
       d="M 11.5,30 C 15,29 30,29 33.5,30"
       style="fill:none;stroke:#000000;stroke-width:1px;stroke-linecap:round;stroke-linejoin:round;stroke-opacity:1"
       id="path5585"
       inkscape:connector-curvature="0" />
    <path
       d="m 12,33.5 c 6,-1 15,-1 21,0"
       style="fill:none;stroke:#000000;stroke-width:1px;stroke-linecap:round;stroke-linejoin:round;stroke-opacity:1"
       id="path5587"
       inkscape:connector-curvature="0" />
    <path
       d="M 10.5,36 C 15.5,35 29,35 34,36"
       style="fill:none;stroke:#000000;stroke-width:1px;stroke-linecap:round;stroke-linejoin:round;stroke-opacity:1"
       id="path5589"
       inkscape:connector-curvature="0" />
  </g>
</svg>
