<?xml version="1.0" encoding="UTF-8" standalone="no"?>
<svg
   xmlns:dc="http://purl.org/dc/elements/1.1/"
   xmlns:cc="http://creativecommons.org/ns#"
   xmlns:rdf="http://www.w3.org/1999/02/22-rdf-syntax-ns#"
   xmlns:svg="http://www.w3.org/2000/svg"
   xmlns="http://www.w3.org/2000/svg"
   xmlns:sodipodi="http://sodipodi.sourceforge.net/DTD/sodipodi-0.dtd"
   xmlns:inkscape="http://www.inkscape.org/namespaces/inkscape"
   version="1.1"
   width="34.285713"
   height="45"
   id="svg3128"
   inkscape:version="0.48.1 r9760"
   sodipodi:docname="Piece_Black_Pawn.svg"
   viewBox="0 0 34.28 45">
  <metadata
     id="metadata3604">
    <rdf:RDF>
      <cc:Work
         rdf:about="">
        <dc:format>image/svg+xml</dc:format>
        <dc:type
           rdf:resource="http://purl.org/dc/dcmitype/StillImage" />
      </cc:Work>
    </rdf:RDF>
  </metadata>
  <sodipodi:namedview
     pagecolor="#ffffff"
     bordercolor="#666666"
     borderopacity="1"
     objecttolerance="10"
     gridtolerance="10"
     guidetolerance="10"
     inkscape:pageopacity="0"
     inkscape:pageshadow="2"
     inkscape:window-width="1680"
     inkscape:window-height="1002"
     id="namedview3602"
     showgrid="false"
     fit-margin-top="0"
     fit-margin-left="0"
     fit-margin-right="0"
     fit-margin-bottom="0"
     inkscape:zoom="5.8222222"
     inkscape:cx="-11.727372"
     inkscape:cy="24.249999"
     inkscape:window-x="0"
     inkscape:window-y="0"
     inkscape:window-maximized="0"
     inkscape:current-layer="svg3128" />
  <defs
     id="defs3130" />
  <g
     id="layer1"
     transform="matrix(1.4285714,0,0,1.4285714,-14.285714,-12.142857)">
    <path
       d="m 22,9 c -2.208,0 -4,1.792 -4,4 0,0.885 0.294,1.712 0.781,2.375 C 16.829,16.497 15.5,18.588 15.5,21 c 0,2.034 0.942,3.839 2.406,5.031 C 14.907,27.089 10.5,31.578 10.5,39.5 l 23,0 C 33.5,31.578 29.093,27.089 26.094,26.031 27.558,24.839 28.5,23.034 28.5,21 28.5,18.588 27.171,16.497 25.219,15.375 25.706,14.712 26,13.885 26,13 26,10.792 24.208,9 22,9 z"
       style="fill:#000000;fill-opacity:1;fill-rule:nonzero;stroke:#000000;stroke-width:1;stroke-linecap:round;stroke-linejoin:miter;stroke-miterlimit:4;stroke-opacity:1;stroke-dasharray:none;stroke-dashoffset:10"
       id="path3194"
       inkscape:connector-curvature="0" />
  </g>
</svg>
