<?xml version="1.0" encoding="UTF-8" standalone="no"?>
<svg
   xmlns:dc="http://purl.org/dc/elements/1.1/"
   xmlns:cc="http://creativecommons.org/ns#"
   xmlns:rdf="http://www.w3.org/1999/02/22-rdf-syntax-ns#"
   xmlns:svg="http://www.w3.org/2000/svg"
   xmlns="http://www.w3.org/2000/svg"
   xmlns:sodipodi="http://sodipodi.sourceforge.net/DTD/sodipodi-0.dtd"
   xmlns:inkscape="http://www.inkscape.org/namespaces/inkscape"
   version="1.1"
   width="45.001171"
   height="44.963997"
   id="svg3128"
   inkscape:version="0.48.1 r9760"
   sodipodi:docname="Piece_Black_Knight.svg"
   viewBox="0 0 45 44.96">
  <metadata
     id="metadata3502">
    <rdf:RDF>
      <cc:Work
         rdf:about="">
        <dc:format>image/svg+xml</dc:format>
        <dc:type
           rdf:resource="http://purl.org/dc/dcmitype/StillImage" />
      </cc:Work>
    </rdf:RDF>
  </metadata>
  <sodipodi:namedview
     pagecolor="#ffffff"
     bordercolor="#666666"
     borderopacity="1"
     objecttolerance="10"
     gridtolerance="10"
     guidetolerance="10"
     inkscape:pageopacity="0"
     inkscape:pageshadow="2"
     inkscape:window-width="1680"
     inkscape:window-height="1002"
     id="namedview3500"
     showgrid="false"
     fit-margin-top="0"
     fit-margin-left="0"
     fit-margin-right="0"
     fit-margin-bottom="0"
     inkscape:zoom="5.8222222"
     inkscape:cx="-6.3844769"
     inkscape:cy="22.980498"
     inkscape:window-x="0"
     inkscape:window-y="0"
     inkscape:window-maximized="0"
     inkscape:current-layer="svg3128" />
  <defs
     id="defs3130" />
  <g
     id="layer1"
     transform="matrix(1.3624545,0,0,1.3624545,-7.493496,-8.8529543)">
    <path
       d="m 22,10 c 10.5,1 16.5,8 16,29 l -23,0 c 0,-9 10,-6.5 8,-21"
       style="fill:#000000;fill-opacity:1;fill-rule:evenodd;stroke:#000000;stroke-width:1px;stroke-linecap:round;stroke-linejoin:miter;stroke-opacity:1"
       id="path3491"
       inkscape:connector-curvature="0" />
    <path
       d="m 24,18 c 0.384,2.911 -5.553,7.369 -8,9 -3,2 -2.819,4.343 -5,4 -1.0417,-0.944 1.413,-3.038 0,-3 -1,0 0.187,1.232 -1,2 -1,0 -4.0032,1 -4,-4 0,-2 6,-12 6,-12 0,0 1.886,-1.902 2,-3.5 -0.726,-0.9944 -0.5,-2 -0.5,-3 1,-1 3,2.5 3,2.5 l 2,0 c 0,0 0.782,-1.9919 2.5,-3 1,0 1,3 1,3"
       style="fill:#000000;fill-opacity:1;fill-rule:evenodd;stroke:#000000;stroke-width:1px;stroke-linecap:round;stroke-linejoin:round;stroke-opacity:1"
       id="path3495"
       inkscape:connector-curvature="0" />
    <path
       d="m 9,23.5 a 0.5,0.5 0 1 1 -1,0 0.5,0.5 0 1 1 1,0 z"
       transform="translate(0.5,2)"
       style="fill:#000000;fill-opacity:1;stroke:#ffffff;stroke-width:1;stroke-linecap:round;stroke-linejoin:round;stroke-miterlimit:4;stroke-opacity:1;stroke-dasharray:none"
       id="path3499"
       inkscape:connector-curvature="0" />
    <path
       d="m 15,15.5 a 0.5,1.5 0 1 1 -1,0 0.5,1.5 0 1 1 1,0 z"
       transform="matrix(0.866,0.5,-0.5,0.866,9.6926,-5.1734)"
       style="fill:#000000;fill-opacity:1;stroke:#ffffff;stroke-width:1;stroke-linecap:round;stroke-linejoin:round;stroke-miterlimit:4;stroke-opacity:1;stroke-dasharray:none"
       id="path3501"
       inkscape:connector-curvature="0" />
    <path
       d="m 24.55,10.4 -0.3,1.1 0.55,0.1 c 3.101,0.477 6.324,2.234 8.575,6.494 2.251,4.259 2.922,10.963 2.425,20.906 l -0.05,0.5 1.75,0 0,-0.5 C 38.003,28.943 36.624,22.147 34.25,17.656 31.876,13.166 28.461,11.023 25.063,10.5 L 24.55,10.4 z"
       style="fill:#ffffff;fill-opacity:1;fill-rule:evenodd;stroke:none"
       id="path8049"
       inkscape:connector-curvature="0" />
  </g>
</svg>
