<?xml version="1.0" encoding="UTF-8" standalone="no"?>
<svg
   xmlns:dc="http://purl.org/dc/elements/1.1/"
   xmlns:cc="http://creativecommons.org/ns#"
   xmlns:rdf="http://www.w3.org/1999/02/22-rdf-syntax-ns#"
   xmlns:svg="http://www.w3.org/2000/svg"
   xmlns="http://www.w3.org/2000/svg"
   xmlns:sodipodi="http://sodipodi.sourceforge.net/DTD/sodipodi-0.dtd"
   xmlns:inkscape="http://www.inkscape.org/namespaces/inkscape"
   version="1.1"
   width="43.546688"
   height="44.020638"
   id="svg3128"
   inkscape:version="0.48.1 r9760"
   sodipodi:docname="Piece_Black_King.svg"
   viewBox="0 0 43.54 44.02">
  <metadata
     id="metadata3063">
    <rdf:RDF>
      <cc:Work
         rdf:about="">
        <dc:format>image/svg+xml</dc:format>
        <dc:type
           rdf:resource="http://purl.org/dc/dcmitype/StillImage" />
        <dc:title></dc:title>
      </cc:Work>
    </rdf:RDF>
  </metadata>
  <sodipodi:namedview
     pagecolor="#ffffff"
     bordercolor="#666666"
     borderopacity="1"
     objecttolerance="10"
     gridtolerance="10"
     guidetolerance="10"
     inkscape:pageopacity="0"
     inkscape:pageshadow="2"
     inkscape:window-width="1680"
     inkscape:window-height="1002"
     id="namedview3061"
     showgrid="false"
     inkscape:snap-global="false"
     fit-margin-top="0"
     fit-margin-left="0"
     fit-margin-right="0"
     fit-margin-bottom="0"
     inkscape:zoom="16.467731"
     inkscape:cx="12.904336"
     inkscape:cy="22.935717"
     inkscape:window-x="0"
     inkscape:window-y="0"
     inkscape:window-maximized="0"
     inkscape:current-layer="svg3128" />
  <defs
     id="defs3130" />
  <g
     id="layer1"
     transform="matrix(1.2526816,0,0,1.2526816,-6.366805,-6.5561597)">
    <path
       d="M 22.5,11.625 22.5,6"
       style="fill:none;stroke:#000000;stroke-width:1.5;stroke-linecap:round;stroke-linejoin:miter;stroke-miterlimit:4;stroke-opacity:1;stroke-dasharray:none"
       id="path6570"
       inkscape:connector-curvature="0" />
    <path
       d="m 22.5,25 c 0,0 4.5,-7.5 3,-10.5 0,0 -1,-2.5 -3,-2.5 -2,0 -3,2.5 -3,2.5 -1.5,3 3,10.5 3,10.5"
       style="fill:#000000;fill-opacity:1;fill-rule:evenodd;stroke:#000000;stroke-width:1.5;stroke-linecap:butt;stroke-linejoin:miter;stroke-miterlimit:4;stroke-opacity:1;stroke-dasharray:none"
       id="path5683"
       inkscape:connector-curvature="0" />
    <path
       d="m 11.5,37 c 5.5,3.5 15.5,3.5 21,0 l 0,-7 c 0,0 9,-4.5 6,-10.5 -4,-6.5 -13.5,-3.5 -16,4 l 0,3.5 0,-3.5 C 19,16 9.5,13 6.5,19.5 c -3,6 5,10 5,10 l 0,7.5 z"
       style="fill:#000000;fill-opacity:1;fill-rule:evenodd;stroke:#000000;stroke-width:1.5;stroke-linecap:round;stroke-linejoin:round;stroke-miterlimit:4;stroke-opacity:1;stroke-dasharray:none"
       id="path5681"
       inkscape:connector-curvature="0" />
    <path
       d="m 20,8 5,0"
       style="fill:none;stroke:#000000;stroke-width:1.5;stroke-linecap:round;stroke-linejoin:miter;stroke-miterlimit:4;stroke-opacity:1;stroke-dasharray:none"
       id="path6572"
       inkscape:connector-curvature="0" />
    <path
       d="M 11.5,29.5 C 17,27 27,27 32.5,30"
       style="fill:none;stroke:#ffffff;stroke-width:1.5;stroke-linecap:round;stroke-linejoin:miter;stroke-miterlimit:4;stroke-opacity:1;stroke-dasharray:none"
       id="path6574"
       inkscape:connector-curvature="0" />
    <path
       d="M 11.5,37 C 17,34.5 27,34.5 32.5,37"
       style="fill:none;stroke:#ffffff;stroke-width:1.5;stroke-linecap:round;stroke-linejoin:round;stroke-miterlimit:4;stroke-opacity:1;stroke-dasharray:none"
       id="path6576"
       inkscape:connector-curvature="0" />
    <path
       d="m 11.5,33.5 c 5.5,-2 15.5,-2 21,0"
       style="fill:none;stroke:#ffffff;stroke-width:1.5;stroke-linecap:round;stroke-linejoin:round;stroke-miterlimit:4;stroke-opacity:1;stroke-dasharray:none"
       id="path6578"
       inkscape:connector-curvature="0" />
    <path
       d="m 32,29.5 c 0,0 8.5,-4 6.026,-9.653 C 34.147,13.997 25,18 22.5,24.5 L 22.512,26.597 22.5,24.5 C 20,18 9.9064,13.997 6.9975,19.847 c -2.4975,5.653 4.8485,9 4.8485,9"
       style="fill:none;stroke:#ffffff;stroke-width:1.5;stroke-linecap:round;stroke-linejoin:round;stroke-miterlimit:4;stroke-opacity:1;stroke-dasharray:none"
       id="path5638"
       inkscape:connector-curvature="0" />
  </g>
</svg>
